<svg width="1152" height="864" viewBox="0 0 1152 864" fill="none" xmlns="http://www.w3.org/2000/svg">
  <rect width="1152" height="864" fill="white"/>
  <ellipse cx="576" cy="432" rx="442" ry="291" fill="#050505" stroke="#F5C518" stroke-width="8"/>
  <ellipse cx="576" cy="432" rx="435" ry="284" fill="none" stroke="#F5C518" stroke-width="2"/>

  <defs>
    <linearGradient id="redGrad" x1="0" y1="0" x2="0" y2="1">
      <stop offset="0%" stop-color="#FF4A4A"/>
      <stop offset="100%" stop-color="#D51E2D"/>
    </linearGradient>
  </defs>

  <text x="260" y="385" fill="url(#redGrad)" font-family="Arial, Helvetica, sans-serif" font-size="230" font-weight="800" letter-spacing="6">TU</text>
  <text x="780" y="385" fill="url(#redGrad)" font-family="Arial, Helvetica, sans-serif" font-size="230" font-weight="800" letter-spacing="6">N</text>

  <rect x="242" y="495" width="315" height="8" rx="4" fill="#F5C518"/>
  <text x="584" y="533" fill="url(#redGrad)" font-family="Arial, Helvetica, sans-serif" font-size="86" font-weight="400">Creations</text>

  <g fill="#F5C518" opacity="0.95">
    <circle cx="568" cy="200" r="5"/>
    <circle cx="580" cy="200" r="5"/>
    <circle cx="592" cy="200" r="5"/>
    <circle cx="556" cy="212" r="5"/>
    <circle cx="568" cy="212" r="5"/>
    <circle cx="580" cy="212" r="5"/>
    <circle cx="592" cy="212" r="5"/>
    <circle cx="604" cy="212" r="5"/>
    <circle cx="544" cy="224" r="5"/>
    <circle cx="556" cy="224" r="5"/>
    <circle cx="568" cy="224" r="5"/>
    <circle cx="580" cy="224" r="5"/>
    <circle cx="592" cy="224" r="5"/>
    <circle cx="604" cy="224" r="5"/>
    <circle cx="616" cy="224" r="5"/>
    <circle cx="532" cy="236" r="5"/>
    <circle cx="544" cy="236" r="5"/>
    <circle cx="556" cy="236" r="5"/>
    <circle cx="568" cy="236" r="5"/>
    <circle cx="580" cy="236" r="5"/>
    <circle cx="592" cy="236" r="5"/>
    <circle cx="604" cy="236" r="5"/>
    <circle cx="616" cy="236" r="5"/>
    <circle cx="628" cy="236" r="5"/>
    <circle cx="544" cy="248" r="5"/>
    <circle cx="556" cy="248" r="5"/>
    <circle cx="568" cy="248" r="5"/>
    <circle cx="580" cy="248" r="5"/>
    <circle cx="592" cy="248" r="5"/>
    <circle cx="604" cy="248" r="5"/>
    <circle cx="616" cy="248" r="5"/>
    <circle cx="628" cy="248" r="5"/>
    <circle cx="640" cy="248" r="5"/>
    <circle cx="556" cy="260" r="5"/>
    <circle cx="568" cy="260" r="5"/>
    <circle cx="580" cy="260" r="5"/>
    <circle cx="592" cy="260" r="5"/>
    <circle cx="604" cy="260" r="5"/>
    <circle cx="616" cy="260" r="5"/>
    <circle cx="628" cy="260" r="5"/>
    <circle cx="640" cy="260" r="5"/>
    <circle cx="652" cy="260" r="5"/>
    <circle cx="568" cy="272" r="5"/>
    <circle cx="580" cy="272" r="5"/>
    <circle cx="592" cy="272" r="5"/>
    <circle cx="604" cy="272" r="5"/>
    <circle cx="616" cy="272" r="5"/>
    <circle cx="628" cy="272" r="5"/>
    <circle cx="640" cy="272" r="5"/>
    <circle cx="652" cy="272" r="5"/>
    <circle cx="664" cy="272" r="5"/>
    <circle cx="580" cy="284" r="5"/>
    <circle cx="592" cy="284" r="5"/>
    <circle cx="604" cy="284" r="5"/>
    <circle cx="616" cy="284" r="5"/>
    <circle cx="628" cy="284" r="5"/>
    <circle cx="640" cy="284" r="5"/>
    <circle cx="652" cy="284" r="5"/>
    <circle cx="664" cy="284" r="5"/>
    <circle cx="676" cy="284" r="5"/>
    <circle cx="592" cy="296" r="5"/>
    <circle cx="604" cy="296" r="5"/>
    <circle cx="616" cy="296" r="5"/>
    <circle cx="628" cy="296" r="5"/>
    <circle cx="640" cy="296" r="5"/>
    <circle cx="652" cy="296" r="5"/>
    <circle cx="664" cy="296" r="5"/>
    <circle cx="676" cy="296" r="5"/>
    <circle cx="688" cy="296" r="5"/>
    <circle cx="604" cy="308" r="5"/>
    <circle cx="616" cy="308" r="5"/>
    <circle cx="628" cy="308" r="5"/>
    <circle cx="640" cy="308" r="5"/>
    <circle cx="652" cy="308" r="5"/>
    <circle cx="664" cy="308" r="5"/>
    <circle cx="676" cy="308" r="5"/>
    <circle cx="688" cy="308" r="5"/>
    <circle cx="700" cy="308" r="5"/>
    <circle cx="616" cy="320" r="5"/>
    <circle cx="628" cy="320" r="5"/>
    <circle cx="640" cy="320" r="5"/>
    <circle cx="652" cy="320" r="5"/>
    <circle cx="664" cy="320" r="5"/>
    <circle cx="676" cy="320" r="5"/>
    <circle cx="688" cy="320" r="5"/>
    <circle cx="700" cy="320" r="5"/>
    <circle cx="688" cy="332" r="5"/>
    <circle cx="700" cy="332" r="5"/>
    <circle cx="712" cy="332" r="5"/>
    <circle cx="676" cy="344" r="5"/>
    <circle cx="688" cy="344" r="5"/>
    <circle cx="700" cy="344" r="5"/>
    <circle cx="712" cy="344" r="5"/>
    <circle cx="724" cy="344" r="5"/>
  </g>

  <g fill="#F5C518" opacity="0.95">
    <circle cx="650" cy="332" r="5"/>
    <circle cx="662" cy="332" r="5"/>
    <circle cx="638" cy="344" r="5"/>
    <circle cx="650" cy="344" r="5"/>
    <circle cx="662" cy="344" r="5"/>
    <circle cx="674" cy="344" r="5"/>
    <circle cx="626" cy="356" r="5"/>
    <circle cx="638" cy="356" r="5"/>
    <circle cx="650" cy="356" r="5"/>
    <circle cx="662" cy="356" r="5"/>
    <circle cx="674" cy="356" r="5"/>
    <circle cx="686" cy="356" r="5"/>
    <circle cx="614" cy="368" r="5"/>
    <circle cx="626" cy="368" r="5"/>
    <circle cx="638" cy="368" r="5"/>
    <circle cx="650" cy="368" r="5"/>
    <circle cx="662" cy="368" r="5"/>
    <circle cx="674" cy="368" r="5"/>
    <circle cx="686" cy="368" r="5"/>
    <circle cx="698" cy="368" r="5"/>
    <circle cx="614" cy="380" r="5"/>
    <circle cx="626" cy="380" r="5"/>
    <circle cx="638" cy="380" r="5"/>
    <circle cx="650" cy="380" r="5"/>
    <circle cx="662" cy="380" r="5"/>
    <circle cx="674" cy="380" r="5"/>
    <circle cx="686" cy="380" r="5"/>
    <circle cx="698" cy="380" r="5"/>
    <circle cx="710" cy="380" r="5"/>
    <circle cx="626" cy="392" r="5"/>
    <circle cx="638" cy="392" r="5"/>
    <circle cx="650" cy="392" r="5"/>
    <circle cx="662" cy="392" r="5"/>
    <circle cx="674" cy="392" r="5"/>
    <circle cx="686" cy="392" r="5"/>
    <circle cx="698" cy="392" r="5"/>
    <circle cx="710" cy="392" r="5"/>
    <circle cx="722" cy="392" r="5"/>
  </g>

  <text x="457" y="689" fill="#F6F2EC" font-family="Arial, Helvetica, sans-serif" font-size="54" font-weight="400">“Africa Inspired ICT”</text>
</svg>
